<?xml version="1.0" standalone="no"?>
<!DOCTYPE svg PUBLIC "-//W3C//DTD SVG 20010904//EN"
 "http://www.w3.org/TR/2001/REC-SVG-20010904/DTD/svg10.dtd">
<svg version="1.0" xmlns="http://www.w3.org/2000/svg"
 width="400.000000pt" height="400.000000pt" viewBox="0 0 400.000000 400.000000"
 preserveAspectRatio="xMidYMid meet">
<metadata>
Created by potrace 1.16, written by Peter Selinger 2001-2019
</metadata>
<g transform="translate(0.000000,400.000000) scale(0.100000,-0.100000)"
fill="#000000" stroke="none">
<path d="M0 2000 l0 -2000 2000 0 2000 0 0 2000 0 2000 -2000 0 -2000 0 0
-2000z m2213 890 l457 -262 0 -62 -1 -61 -211 -120 c-115 -66 -217 -125 -225
-131 -13 -8 26 -35 194 -132 115 -66 216 -124 226 -128 14 -5 17 -19 17 -69
l0 -63 -537 -308 c-295 -170 -543 -310 -552 -311 -9 -2 -68 28 -131 65 l-115
67 -3 48 c-2 26 1 47 6 47 5 0 62 -30 126 -66 l116 -66 342 197 c189 108 346
200 349 203 4 4 -119 77 -272 163 l-279 157 0 -88 0 -88 130 -73 c71 -41 126
-77 121 -82 -5 -5 -95 -57 -201 -116 l-192 -109 -124 71 -124 71 0 652 c0 513
3 654 13 662 7 6 93 58 192 116 161 94 182 104 200 92 11 -7 226 -131 478
-276z m441 -1237 c-37 -27 -1068 -616 -1078 -616 -13 0 -204 110 -228 131 -12
10 -18 30 -18 59 0 23 2 43 4 43 2 0 58 -31 124 -69 l120 -69 543 313 544 313
3 -46 c2 -34 -1 -50 -14 -59z m16 -150 l0 -48 -546 -313 -546 -314 -121 70
-122 70 -3 46 c-2 28 1 46 8 46 6 0 62 -29 125 -66 l114 -65 538 310 c296 171
541 310 546 311 4 0 7 -21 7 -47z"/>
<path d="M1722 2618 l3 -92 195 -113 c107 -62 200 -113 205 -113 6 0 43 20 83
44 l73 43 -281 161 -281 161 3 -91z"/>
</g>
</svg>
